<svg width="42" height="28" viewBox="0 0 42 28" fill="none" xmlns="http://www.w3.org/2000/svg">
<rect x="1.22168" y="0.5" width="39.6397" height="26.8672" rx="5.5" fill="white" stroke="#D9D9D9"/>
<path fill-rule="evenodd" clip-rule="evenodd" d="M8.00741 9.86963L4.20508 18.2841H8.757L9.32131 16.9425H10.6112L11.1755 18.2841H16.1859V17.2601L16.6323 18.2841H19.2241L19.6706 17.2385V18.2841H30.0908L31.3579 16.9773L32.5443 18.2841L37.8963 18.2949L34.082 14.1003L37.8963 9.86963H32.6273L31.3939 11.1522L30.2448 9.86963H18.909L17.9355 12.0415L16.9393 9.86963H12.3969V10.8587L11.8916 9.86963H8.00741ZM23.5679 11.0645H29.5517L31.3819 13.0414L33.271 11.0645H35.1012L32.3204 14.0992L35.1012 17.0988H33.188L31.3579 15.099L29.4591 17.0988H23.5679V11.0645ZM25.0456 13.4169V12.3146V12.3136H28.7793L30.4085 14.0763L28.7071 15.8487H25.0456V14.6454H28.31V13.4169H25.0456ZM8.88818 11.0645H11.107L13.6291 16.7704V11.0645H16.0597L18.0077 15.1556L19.8031 11.0645H22.2215V17.1024H20.7499L20.7379 12.3711L18.5925 17.1024H17.2761L15.1186 12.3711V17.1024H12.0912L11.5173 15.7488H8.41652L7.84377 17.1012H6.22172L8.88818 11.0645ZM8.94598 14.4974L9.96756 12.0861L10.988 14.4974H8.94598Z" fill="#505050"/>
</svg>
