<svg width="41" height="28" viewBox="0 0 41 28" fill="none" xmlns="http://www.w3.org/2000/svg">
<rect x="0.5" y="0.5" width="39.6397" height="26.8672" rx="5.5" fill="white" stroke="#D9D9D9"/>
<g clip-path="url(#clip0_391_3989)">
<path d="M5.80566 5.80579H6.12828V14.3719H5.80566V5.80579ZM6.4509 5.80579H6.77352V14.3719H6.4509V5.80579ZM8.38805 5.80579H8.71067V14.3719H8.38805V5.80579ZM14.6678 5.80579H14.9904V14.3719H14.6678V5.80579ZM16.7672 5.80579H17.0898V14.3719H16.7672V5.80579ZM18.803 5.80579H19.1256V14.3719H18.803V5.80579ZM19.3276 5.80579H19.6502V14.3719H19.328L19.3276 5.80579ZM19.853 5.80579H20.1756V14.3719H19.853V5.80579ZM20.4435 5.80579H20.7661V14.3719H20.4436L20.4435 5.80579ZM21.0338 5.80579H21.3564V14.3719H21.0338V5.80579ZM22.6751 5.80579H22.9977V14.3719H22.6746L22.6751 5.80579ZM26.7444 5.80579H27.067V14.3719H26.7444V5.80579ZM30.9892 5.80579H31.3117V14.3719H30.989L30.9892 5.80579ZM32.1502 5.80579H32.4728V14.3719H32.1502V5.80579ZM32.9896 5.80579H33.3122V14.3719H32.9896V5.80579ZM33.506 5.80579H33.8287V14.3719H33.506V5.80579ZM10.5186 5.80579H10.8412V14.3719H10.5186V5.80579ZM7.29031 5.80579H7.87126V14.3719H7.29031V5.80579ZM11.1241 5.80579H11.7049V14.3719H11.1241V5.80579ZM13.816 5.80579H14.3969V14.3719H13.816V5.80579ZM15.1942 5.80579H15.775V14.3719H15.1942V5.80579ZM17.3601 5.80579H17.9409V14.3719H17.3601V5.80579ZM23.535 5.80579H24.4385V14.3719H23.535V5.80579ZM24.7151 5.80579H25.4248V14.3719H24.7144L24.7151 5.80579ZM25.9604 5.80579H26.5413V14.3719H25.9604V5.80579ZM27.6071 5.80579H28.5756V14.3719H27.6071V5.80579ZM29.5037 5.80579H30.4724V14.3719H29.5037V5.80579ZM9.03362 5.80579H10.1953V14.3719H9.03362V5.80579ZM12.0447 5.80579H12.9481V14.3719H12.0447V5.80579Z" fill="#010101"/>
<path d="M6.22363 21.9779V17.0749H8.06348C8.37093 17.063 8.6776 17.1136 8.96496 17.2235C9.18522 17.3177 9.37089 17.4778 9.49643 17.6818C9.62086 17.8748 9.68764 18.0993 9.68894 18.329C9.68895 18.5384 9.62984 18.7436 9.51841 18.9209C9.39287 19.1162 9.21415 19.2716 9.00328 19.3688C9.27389 19.4383 9.51435 19.5945 9.68806 19.8133C9.8488 20.027 9.93298 20.2885 9.92707 20.5558C9.92897 20.7778 9.87925 20.9971 9.78183 21.1964C9.69947 21.3752 9.57575 21.5318 9.42089 21.6533C9.25969 21.7689 9.07718 21.8515 8.88389 21.8962C8.62472 21.9557 8.35926 21.9833 8.09341 21.9784L6.22363 21.9779ZM6.87307 19.1353H7.93337C8.14045 19.1433 8.34768 19.1242 8.54978 19.0784C8.6977 19.0409 8.82886 18.9551 8.92243 18.8345C9.00955 18.7092 9.05356 18.5589 9.04779 18.4064C9.05078 18.255 9.01014 18.1059 8.93072 17.977C8.85494 17.8546 8.73714 17.764 8.59937 17.7222C8.35492 17.666 8.10401 17.6429 7.85341 17.6536H6.87329L6.87307 19.1353ZM6.87307 21.3995H8.09363C8.24127 21.4033 8.389 21.3956 8.53542 21.3763C8.66786 21.3547 8.79501 21.3082 8.91007 21.2392C9.0152 21.1713 9.10051 21.0768 9.15736 20.9653C9.22373 20.8386 9.25719 20.6973 9.25466 20.5543C9.25922 20.3837 9.21012 20.216 9.11428 20.0747C9.01966 19.9392 8.88247 19.8392 8.72451 19.7906C8.49093 19.7274 8.24918 19.6997 8.00737 19.7084H6.87307V21.3995ZM10.8753 19.5904C10.8341 18.8917 11.0695 18.2049 11.5306 17.6783C11.7479 17.4502 12.0111 17.2706 12.3028 17.1516C12.5946 17.0326 12.9083 16.9768 13.2232 16.9878C13.6532 16.982 14.0766 17.0943 14.4472 17.3125C14.8074 17.5255 15.0965 17.8403 15.2781 18.2173C15.4738 18.628 15.5715 19.0784 15.5637 19.5332C15.5719 19.9956 15.469 20.4532 15.2637 20.8675C15.0773 21.2446 14.7796 21.5554 14.4109 21.758C14.0465 21.9589 13.6366 22.0631 13.2204 22.0607C12.7849 22.0679 12.3562 21.9523 11.9834 21.7272C11.6246 21.5097 11.3373 21.1921 11.1567 20.8134C10.9704 20.4327 10.8742 20.0143 10.8753 19.5904V19.5904ZM11.5445 19.6007C11.5166 20.1109 11.6886 20.6118 12.0239 20.9973C12.1752 21.163 12.3602 21.2942 12.5666 21.3822C12.7729 21.4703 12.9957 21.513 13.22 21.5076C13.4456 21.5133 13.6697 21.4702 13.8771 21.3811C14.0844 21.2921 14.2701 21.1593 14.4213 20.9918C14.7596 20.5827 14.929 20.0599 14.8947 19.5301C14.9037 19.1715 14.8357 18.815 14.6953 18.4848C14.5716 18.2001 14.3655 17.9589 14.1036 17.7923C13.8417 17.6278 13.538 17.5425 13.2288 17.5465C13.0097 17.5431 12.7921 17.5833 12.5886 17.6645C12.3851 17.7457 12.1997 17.8665 12.0431 18.0197C11.8579 18.236 11.7182 18.4874 11.6325 18.7589C11.5468 19.0305 11.5169 19.3165 11.5445 19.5999V19.6007ZM16.6276 21.9782V17.0749H17.2763V21.399H19.6908V21.9779L16.6276 21.9782ZM20.7305 21.9782V17.0749H24.2759V17.6536H21.3792V19.1557H24.0917V19.731H21.3792V21.3996H24.3897V21.9784L20.7305 21.9782ZM26.7871 21.9782V17.6536H25.1709V17.0749H29.0573V17.6536H27.4353V21.9779L26.7871 21.9782ZM29.6556 19.5904C29.615 18.8916 29.851 18.2049 30.3126 17.6787C30.5299 17.4505 30.793 17.2709 31.0848 17.1519C31.3765 17.0329 31.6902 16.9771 32.0051 16.9882C32.4351 16.9823 32.8585 17.0946 33.2291 17.3129C33.5893 17.5258 33.8784 17.8406 34.06 18.2177C34.2558 18.6283 34.3535 19.0787 34.3456 19.5335C34.3536 19.996 34.2505 20.4536 34.045 20.8679C33.8579 21.2456 33.5592 21.5567 33.1894 21.759C32.8249 21.9599 32.4151 22.0641 31.9989 22.0617C31.5631 22.0689 31.1342 21.953 30.7612 21.7275C30.4032 21.5097 30.1165 21.1921 29.9365 20.8137C29.7504 20.4329 29.6543 20.0143 29.6556 19.5904V19.5904ZM30.3248 19.6007C30.297 20.1109 30.469 20.6118 30.8043 20.9973C30.9556 21.163 31.1406 21.2942 31.3469 21.3822C31.5533 21.4703 31.7761 21.513 32.0003 21.5076C32.2266 21.514 32.4515 21.4713 32.6596 21.3823C32.8678 21.2934 33.0541 21.1604 33.2059 20.9925C33.5442 20.5834 33.7135 20.0605 33.6791 19.5308C33.6862 19.1717 33.6161 18.8152 33.4736 18.4855C33.3499 18.2008 33.1438 17.9596 32.8818 17.793C32.6202 17.6286 32.3166 17.5432 32.0076 17.5471C31.7885 17.5438 31.5709 17.5839 31.3674 17.6651C31.1639 17.7464 30.9785 17.8671 30.8219 18.0204C30.637 18.2367 30.4977 18.488 30.4123 18.7594C30.3269 19.0308 30.2971 19.3167 30.3248 19.5998V19.6007Z" fill="black"/>
</g>
<defs>
<clipPath id="clip0_391_3989">
<rect width="28.5402" height="16.2559" fill="white" transform="translate(5.80566 5.80579)"/>
</clipPath>
</defs>
</svg>
