<svg width="28" height="28" viewBox="0 0 28 28" fill="none" xmlns="http://www.w3.org/2000/svg">
<path d="M13.5921 27.258C12.862 27.258 12.1289 27.1996 11.4148 27.0836C8.26223 26.5745 5.37298 24.9497 3.28037 22.5086C1.16507 20.0409 0 16.8875 0 13.6286C0 6.11339 6.09775 0 13.5921 0C21.0864 0 27.185 6.11415 27.185 13.6286C27.185 16.9376 25.9881 20.1281 23.8138 22.6125C21.6607 25.0741 18.7026 26.677 15.4842 27.1268C14.8616 27.214 14.2246 27.258 13.5921 27.258ZM13.5921 0.910295C6.59783 0.910295 0.907855 6.61557 0.907855 13.6286C0.907855 19.9074 5.38735 25.1886 11.5593 26.1846C12.8038 26.3857 14.1065 26.4001 15.3586 26.2248C21.5827 25.3555 26.2763 19.94 26.2763 13.6286C26.2763 6.61557 20.5864 0.910295 13.5913 0.910295H13.5921Z" fill="#93014A"/>
<path d="M15.4215 11.0328V13.9025H18.9621L18.4015 17.769H15.4215V26.6762C14.8238 26.7596 14.2125 26.8029 13.5921 26.8029C12.8757 26.8029 12.1728 26.7452 11.4874 26.6345V17.769H8.22217V13.9025H11.4874V10.3918C11.4874 8.21314 13.2487 6.44641 15.4222 6.44641V6.44869C15.4283 6.44869 15.4343 6.44641 15.4404 6.44641H18.9628V9.78947H16.6614C15.9768 9.78947 15.4222 10.3455 15.4222 11.032L15.4215 11.0328Z" fill="#93014A"/>
</svg>
