<svg width="33" height="33" viewBox="0 0 33 33" fill="none" xmlns="http://www.w3.org/2000/svg">
<path d="M22.3438 30.9375C23.6727 30.9375 24.75 29.8602 24.75 28.5312C24.75 27.2023 23.6727 26.125 22.3438 26.125C21.0148 26.125 19.9375 27.2023 19.9375 28.5312C19.9375 29.8602 21.0148 30.9375 22.3438 30.9375Z" fill="#2C2C2C"/>
<path d="M11.3438 30.9375C12.6727 30.9375 13.75 29.8602 13.75 28.5312C13.75 27.2023 12.6727 26.125 11.3438 26.125C10.0148 26.125 8.9375 27.2023 8.9375 28.5312C8.9375 29.8602 10.0148 30.9375 11.3438 30.9375Z" fill="#2C2C2C"/>
<path d="M6.655 5.4175L6.38 8.78625C6.325 9.4325 6.83375 9.96875 7.48 9.96875H28.5312C29.1087 9.96875 29.59 9.52875 29.6312 8.95125C29.81 6.5175 27.9537 4.5375 25.52 4.5375H8.62125C8.48375 3.9325 8.20875 3.355 7.7825 2.87375C7.095 2.145 6.1325 1.71875 5.1425 1.71875H2.75C2.18625 1.71875 1.71875 2.18625 1.71875 2.75C1.71875 3.31375 2.18625 3.78125 2.75 3.78125H5.1425C5.56875 3.78125 5.9675 3.96 6.25625 4.2625C6.545 4.57875 6.6825 4.99125 6.655 5.4175Z" fill="#2C2C2C"/>
<path d="M28.2013 12.0312H7.10882C6.53132 12.0312 6.06382 12.4712 6.00882 13.035L5.51382 19.0162C5.32132 21.3675 7.16382 23.375 9.51507 23.375H24.8051C26.8676 23.375 28.6826 21.6838 28.8338 19.6213L29.2876 13.2C29.3426 12.5675 28.8476 12.0312 28.2013 12.0312Z" fill="#2C2C2C"/>
</svg>
