<svg width="21" height="21" viewBox="0 0 21 21" fill="none" xmlns="http://www.w3.org/2000/svg">
<path d="M18.8388 9.51127L17.5088 8.18127C17.2813 7.95377 17.0975 7.50752 17.0975 7.19252V5.30252C17.0975 4.53252 16.4675 3.90252 15.6975 3.90252H13.8163C13.5013 3.90252 13.055 3.71877 12.8275 3.49127L11.4975 2.16127C10.955 1.61877 10.0625 1.61877 9.52002 2.16127L8.17252 3.49127C7.95377 3.71877 7.50752 3.90252 7.18377 3.90252H5.30252C4.53252 3.90252 3.90252 4.53252 3.90252 5.30252V7.18377C3.90252 7.49877 3.71877 7.94502 3.49127 8.17252L2.16127 9.50252C1.61877 10.045 1.61877 10.9375 2.16127 11.48L3.49127 12.81C3.71877 13.0375 3.90252 13.4838 3.90252 13.7988V15.68C3.90252 16.45 4.53252 17.08 5.30252 17.08H7.18377C7.49877 17.08 7.94502 17.2638 8.17252 17.4913L9.50252 18.8213C10.045 19.3638 10.9375 19.3638 11.48 18.8213L12.81 17.4913C13.0375 17.2638 13.4838 17.08 13.7988 17.08H15.68C16.45 17.08 17.08 16.45 17.08 15.68V13.7988C17.08 13.4838 17.2638 13.0375 17.4913 12.81L18.8213 11.48C19.39 10.9463 19.39 10.0538 18.8388 9.51127ZM7.00002 7.87502C7.00002 7.39377 7.39377 7.00002 7.87502 7.00002C8.35627 7.00002 8.75002 7.39377 8.75002 7.87502C8.75002 8.35627 8.36502 8.75002 7.87502 8.75002C7.39377 8.75002 7.00002 8.35627 7.00002 7.87502ZM8.33877 13.5888C8.20752 13.72 8.04127 13.7813 7.87502 13.7813C7.70877 13.7813 7.54252 13.72 7.41127 13.5888C7.15752 13.335 7.15752 12.915 7.41127 12.6613L12.6613 7.41127C12.915 7.15752 13.335 7.15752 13.5888 7.41127C13.8425 7.66502 13.8425 8.08502 13.5888 8.33877L8.33877 13.5888ZM13.125 14C12.635 14 12.2413 13.6063 12.2413 13.125C12.2413 12.6438 12.635 12.25 13.1163 12.25C13.5975 12.25 13.9913 12.6438 13.9913 13.125C13.9913 13.6063 13.6063 14 13.125 14Z" fill="url(#paint0_linear_166_887)"/>
<defs>
<linearGradient id="paint0_linear_166_887" x1="23.0149" y1="10.4913" x2="-3.11781" y2="10.4913" gradientUnits="userSpaceOnUse">
<stop stop-color="#E0013F"/>
<stop offset="1" stop-color="#4A017D"/>
</linearGradient>
</defs>
</svg>
