<svg width="33" height="33" viewBox="0 0 33 33" fill="none" xmlns="http://www.w3.org/2000/svg">
<path d="M16.5 2.75C12.8975 2.75 9.96875 5.67875 9.96875 9.28125C9.96875 12.815 12.7325 15.675 16.335 15.7987C16.445 15.785 16.555 15.785 16.6375 15.7987C16.665 15.7987 16.6787 15.7987 16.7062 15.7987C16.72 15.7987 16.72 15.7987 16.7338 15.7987C20.2537 15.675 23.0175 12.815 23.0312 9.28125C23.0312 5.67875 20.1025 2.75 16.5 2.75Z" fill="#2C2C2C"/>
<path d="M23.4848 19.4562C19.6486 16.8987 13.3923 16.8987 9.52857 19.4562C7.78232 20.625 6.81982 22.2062 6.81982 23.8975C6.81982 25.5887 7.78232 27.1562 9.51482 28.3112C11.4398 29.6037 13.9698 30.25 16.4998 30.25C19.0298 30.25 21.5598 29.6037 23.4848 28.3112C25.2173 27.1425 26.1798 25.575 26.1798 23.87C26.1661 22.1787 25.2173 20.6112 23.4848 19.4562Z" fill="#2C2C2C"/>
</svg>
