<svg width="27" height="27" viewBox="0 0 27 27" fill="none" xmlns="http://www.w3.org/2000/svg">
<path d="M13.4166 26.5349C12.7059 26.5349 11.9923 26.4781 11.297 26.3651C8.22813 25.8696 5.41552 24.2878 3.37843 21.9115C1.31924 19.5093 0.185059 16.4395 0.185059 13.2671C0.185059 5.95121 6.12107 0 13.4166 0C20.7121 0 26.6489 5.95195 26.6489 13.2671C26.6489 16.4882 25.4838 19.5942 23.3671 22.0126C21.2711 24.4089 18.3915 25.9693 15.2585 26.4072C14.6524 26.4921 14.0323 26.5349 13.4166 26.5349ZM13.4166 0.886147C6.60788 0.886147 1.06883 6.44007 1.06883 13.2671C1.06883 19.3793 5.42951 24.5204 11.4377 25.49C12.6492 25.6857 13.9174 25.6997 15.1363 25.5291C21.1953 24.6829 25.7644 19.411 25.7644 13.2671C25.7644 6.44007 20.2253 0.886147 13.4159 0.886147H13.4166Z" fill="#93014A"/>
<path d="M17.4226 5.56946H9.41199C7.19887 5.56946 5.39893 7.37424 5.39893 9.5933V16.9417C5.39893 19.1607 7.19887 20.9655 9.41199 20.9655H17.4226C19.6358 20.9655 21.4357 19.1607 21.4357 16.9417V9.5933C21.4357 7.37424 19.6358 5.56946 17.4226 5.56946ZM6.81443 9.5933C6.81443 8.15701 7.97954 6.98877 9.41199 6.98877H17.4226C18.8551 6.98877 20.0202 8.15701 20.0202 9.5933V16.9417C20.0202 18.378 18.8551 19.5462 17.4226 19.5462H9.41199C7.97954 19.5462 6.81443 18.378 6.81443 16.9417V9.5933Z" fill="#93014A"/>
<path d="M13.4168 17.01C15.4753 17.01 17.15 15.3308 17.15 13.2668C17.15 11.2028 15.4753 9.52356 13.4168 9.52356C11.3584 9.52356 9.68359 11.2028 9.68359 13.2668C9.68359 15.3308 11.3584 17.01 13.4168 17.01ZM13.4168 10.9436C14.6946 10.9436 15.7338 11.9856 15.7338 13.2668C15.7338 14.548 14.6946 15.59 13.4168 15.59C12.139 15.59 11.0998 14.548 11.0998 13.2668C11.0998 11.9856 12.139 10.9436 13.4168 10.9436Z" fill="#93014A"/>
<path d="M17.4963 10.1277C18.0508 10.1277 18.5023 9.67502 18.5023 9.11896C18.5023 8.5629 18.0508 8.11023 17.4963 8.11023C16.9417 8.11023 16.4902 8.5629 16.4902 9.11896C16.4902 9.67502 16.9417 10.1277 17.4963 10.1277Z" fill="#93014A"/>
</svg>
