<svg width="41" height="28" viewBox="0 0 41 28" fill="none" xmlns="http://www.w3.org/2000/svg">
<rect x="0.712891" y="0.5" width="39.6397" height="26.8672" rx="5.5" fill="white" stroke="#D9D9D9"/>
<path fill-rule="evenodd" clip-rule="evenodd" d="M20.823 19.9215C19.4394 21.1155 17.6447 21.8362 15.6836 21.8362C11.3076 21.8362 7.76025 18.2477 7.76025 13.8209C7.76025 9.39423 11.3076 5.80566 15.6836 5.80566C17.6447 5.80566 19.4394 6.52644 20.823 7.72041C22.2066 6.52644 24.0013 5.80566 25.9624 5.80566C30.3384 5.80566 33.8857 9.39423 33.8857 13.8209C33.8857 18.2477 30.3384 21.8362 25.9624 21.8362C24.0013 21.8362 22.2066 21.1155 20.823 19.9215Z" fill="#505050"/>
<path fill-rule="evenodd" clip-rule="evenodd" d="M20.8228 19.9215C22.5264 18.4513 23.6066 16.2638 23.6066 13.8209C23.6066 11.3781 22.5264 9.19056 20.8228 7.72041C22.2063 6.52644 24.0011 5.80566 25.9622 5.80566C30.3381 5.80566 33.8855 9.39423 33.8855 13.8209C33.8855 18.2477 30.3381 21.8362 25.9622 21.8362C24.0011 21.8362 22.2063 21.1155 20.8228 19.9215Z" fill="#787878"/>
<path fill-rule="evenodd" clip-rule="evenodd" d="M20.8229 7.72046C22.5265 9.19061 23.6067 11.3782 23.6067 13.821C23.6067 16.2638 22.5265 18.4513 20.8229 19.9215C19.1193 18.4513 18.0391 16.2638 18.0391 13.821C18.0391 11.3782 19.1193 9.19061 20.8229 7.72046Z" fill="#414141"/>
</svg>
