<svg width="33" height="33" viewBox="0 0 33 33" fill="none" xmlns="http://www.w3.org/2000/svg">
<path d="M22.2613 2.75H10.7387C5.73375 2.75 2.75 5.73375 2.75 10.7387V22.2475C2.75 27.2663 5.73375 30.25 10.7387 30.25H22.2475C27.2525 30.25 30.2362 27.2663 30.2362 22.2613V10.7387C30.25 5.73375 27.2663 2.75 22.2613 2.75ZM23.375 23.7188H9.625C9.06125 23.7188 8.59375 23.2512 8.59375 22.6875C8.59375 22.1238 9.06125 21.6562 9.625 21.6562H23.375C23.9387 21.6562 24.4062 22.1238 24.4062 22.6875C24.4062 23.2512 23.9387 23.7188 23.375 23.7188ZM23.375 17.5312H9.625C9.06125 17.5312 8.59375 17.0637 8.59375 16.5C8.59375 15.9363 9.06125 15.4688 9.625 15.4688H23.375C23.9387 15.4688 24.4062 15.9363 24.4062 16.5C24.4062 17.0637 23.9387 17.5312 23.375 17.5312ZM23.375 11.3438H9.625C9.06125 11.3438 8.59375 10.8762 8.59375 10.3125C8.59375 9.74875 9.06125 9.28125 9.625 9.28125H23.375C23.9387 9.28125 24.4062 9.74875 24.4062 10.3125C24.4062 10.8762 23.9387 11.3438 23.375 11.3438Z" fill="#2C2C2C"/>
</svg>
