<svg width="41" height="28" viewBox="0 0 41 28" fill="none" xmlns="http://www.w3.org/2000/svg">
<rect x="0.541016" y="0.5" width="39.6397" height="26.8672" rx="5.5" fill="white" stroke="#D9D9D9"/>
<path fill-rule="evenodd" clip-rule="evenodd" d="M11.5362 17.6968H9.72996C9.60636 17.6968 9.50123 17.7866 9.48196 17.9086L8.75141 22.5404C8.73689 22.6318 8.80767 22.7142 8.90037 22.7142H9.76271C9.88631 22.7142 9.99144 22.6244 10.0107 22.5022L10.2078 21.2529C10.2268 21.1306 10.3321 21.0408 10.4555 21.0408H11.0273C12.2172 21.0408 12.9038 20.465 13.0832 19.3241C13.164 18.8249 13.0867 18.4327 12.8528 18.1579C12.5962 17.8564 12.1408 17.6968 11.5362 17.6968ZM11.7446 19.3885C11.6459 20.0366 11.1506 20.0366 10.6718 20.0366H10.3992L10.5905 18.8261C10.6018 18.753 10.6652 18.6991 10.7391 18.6991H10.8641C11.1903 18.6991 11.498 18.6991 11.657 18.885C11.7517 18.996 11.7808 19.1608 11.7446 19.3885ZM16.9356 19.3677H16.0707C15.997 19.3677 15.9333 19.4216 15.9219 19.4948L15.8837 19.7367L15.8232 19.6491C15.6359 19.3772 15.2184 19.2864 14.8016 19.2864C13.8457 19.2864 13.0293 20.0104 12.8703 21.0259C12.7877 21.5324 12.9052 22.0168 13.1925 22.3546C13.4561 22.6652 13.8333 22.7947 14.282 22.7947C15.0522 22.7947 15.4793 22.2994 15.4793 22.2994L15.4407 22.5398C15.4262 22.6317 15.4969 22.7141 15.5891 22.7141H16.3683C16.4922 22.7141 16.5967 22.6243 16.6163 22.502L17.0838 19.5415C17.0986 19.4505 17.028 19.3677 16.9356 19.3677ZM15.7299 21.0512C15.6464 21.5454 15.2542 21.8771 14.7541 21.8771C14.5029 21.8771 14.3021 21.7966 14.1732 21.6439C14.0454 21.4923 13.9967 21.2765 14.0374 21.0362C14.1154 20.5462 14.5142 20.2037 15.0068 20.2037C15.2524 20.2037 15.4521 20.2853 15.5836 20.4393C15.7153 20.5948 15.7677 20.8119 15.7299 21.0512ZM20.6732 19.3676H21.5424C21.6642 19.3676 21.7352 19.5041 21.666 19.604L18.775 23.777C18.7282 23.8446 18.6511 23.8848 18.5687 23.8848H17.7005C17.5783 23.8848 17.5069 23.7471 17.5777 23.647L18.4779 22.3764L17.5205 19.5667C17.4874 19.469 17.5595 19.3676 17.6634 19.3676H18.5175C18.6285 19.3676 18.7264 19.4404 18.7584 19.5466L19.2665 21.2436L20.4654 19.4777C20.5123 19.4088 20.5903 19.3676 20.6732 19.3676Z" fill="#414141"/>
<path fill-rule="evenodd" clip-rule="evenodd" d="M30.0973 22.5404L30.8386 17.8239C30.85 17.7507 30.9134 17.6968 30.9871 17.6965H31.8217C31.9138 17.6965 31.9846 17.7792 31.97 17.8706L31.239 22.5022C31.2199 22.6244 31.1148 22.7142 30.991 22.7142H30.2457C30.1535 22.7142 30.0828 22.6318 30.0973 22.5404ZM24.4201 17.6968H22.6135C22.4902 17.6968 22.385 17.7866 22.3657 17.9086L21.6352 22.5404C21.6207 22.6318 21.6914 22.7142 21.7837 22.7142H22.7107C22.7968 22.7142 22.8705 22.6514 22.884 22.5658L23.0913 21.2529C23.1103 21.1306 23.2157 21.0408 23.339 21.0408H23.9105C25.1006 21.0408 25.7872 20.465 25.9667 19.3241C26.0478 18.8249 25.9699 18.4327 25.7362 18.1579C25.4797 17.8564 25.0246 17.6968 24.4201 17.6968ZM24.6285 19.3885C24.53 20.0366 24.0347 20.0366 23.5556 20.0366H23.2833L23.4748 18.8261C23.4862 18.753 23.549 18.6991 23.6232 18.6991H23.7481C24.0741 18.6991 24.3821 18.6991 24.541 18.885C24.6358 18.996 24.6647 19.1608 24.6285 19.3885ZM29.819 19.3677H28.9546C28.8803 19.3677 28.8173 19.4216 28.8061 19.4948L28.7679 19.7367L28.7071 19.6491C28.5199 19.3772 28.1026 19.2864 27.6858 19.2864C26.7299 19.2864 25.9138 20.0104 25.7548 21.0259C25.6724 21.5324 25.7894 22.0168 26.0767 22.3546C26.3409 22.6652 26.7176 22.7947 27.1662 22.7947C27.9364 22.7947 28.3634 22.2994 28.3634 22.2994L28.3249 22.5398C28.3104 22.6317 28.3812 22.7141 28.4739 22.7141H29.2527C29.3761 22.7141 29.4812 22.6243 29.5005 22.502L29.9682 19.5415C29.9825 19.4505 29.9118 19.3677 29.819 19.3677ZM28.6134 21.0512C28.5304 21.5454 28.1377 21.8771 27.6374 21.8771C27.3867 21.8771 27.1856 21.7966 27.0566 21.6439C26.9288 21.4923 26.8807 21.2765 26.9209 21.0362C26.9993 20.5462 27.3976 20.2037 27.8902 20.2037C28.1359 20.2037 28.3354 20.2853 28.4671 20.4393C28.5993 20.5948 28.6516 20.8119 28.6134 21.0512Z" fill="#787878"/>
<path d="M24.9218 6.91663C24.9099 6.99263 24.8964 7.07032 24.8811 7.15015C24.3558 9.84678 22.5589 10.7784 20.2639 10.7784H19.0955C18.8148 10.7784 18.5783 10.9822 18.5346 11.259L17.9363 15.0533L17.7669 16.1287C17.7384 16.3105 17.8786 16.4744 18.0619 16.4744H20.1345C20.3799 16.4744 20.5883 16.296 20.6269 16.054L20.6473 15.9487L21.0376 13.4724L21.0627 13.3366C21.1008 13.0937 21.3097 12.9154 21.5551 12.9154H21.8651C23.873 12.9154 25.4449 12.1002 25.9044 9.74106C26.0962 8.75556 25.9969 7.93269 25.489 7.35396C25.3354 7.17945 25.1447 7.03466 24.9218 6.91663Z" fill="#787878"/>
<path d="M24.3725 6.69767C24.2923 6.67432 24.2094 6.65309 24.1245 6.63398C24.0392 6.61531 23.9517 6.59875 23.8617 6.58431C23.5466 6.53336 23.2015 6.50916 22.8316 6.50916H19.71C19.6331 6.50916 19.5601 6.52656 19.4947 6.55798C19.3508 6.62719 19.2438 6.76349 19.2179 6.93035L18.5537 11.1364L18.5347 11.2591C18.5784 10.9823 18.8149 10.7785 19.0956 10.7785H20.264C22.559 10.7785 24.356 9.8465 24.8812 7.1503C24.8968 7.07047 24.91 6.99277 24.9219 6.91677C24.789 6.84629 24.6451 6.78599 24.4901 6.73461C24.4519 6.72188 24.4125 6.70957 24.3725 6.69767Z" fill="#414141"/>
<path d="M19.2178 6.93024C19.2437 6.76337 19.3508 6.62708 19.4946 6.55829C19.5605 6.52686 19.6331 6.50946 19.7099 6.50946H22.8316C23.2015 6.50946 23.5466 6.53366 23.8616 6.58462C23.9517 6.59905 24.0392 6.61561 24.1245 6.63429C24.2094 6.6534 24.2922 6.67463 24.3725 6.69798C24.4123 6.70987 24.4518 6.72218 24.4904 6.7345C24.6454 6.78587 24.7894 6.84659 24.9223 6.91665C25.0786 5.92012 24.921 5.24161 24.3823 4.62721C23.7883 3.95083 22.7161 3.66125 21.3443 3.66125H17.3614C17.0812 3.66125 16.8422 3.86505 16.7988 4.14232L15.14 14.6575C15.1072 14.8655 15.2677 15.0533 15.4775 15.0533H17.9364L18.5537 11.1363L19.2178 6.93024Z" fill="#505050"/>
</svg>
