<svg width="41" height="28" viewBox="0 0 41 28" fill="none" xmlns="http://www.w3.org/2000/svg">
<rect x="0.860352" y="0.5" width="39.6397" height="26.8672" rx="5.5" fill="white" stroke="#D9D9D9"/>
<path d="M17.7139 18.4637V12.472C17.7139 12.2099 17.7655 11.9503 17.8658 11.7081C17.9662 11.466 18.1132 11.2459 18.2986 11.0606C18.484 10.8753 18.704 10.7283 18.9462 10.6281C19.1884 10.5278 19.448 10.4762 19.7101 10.4763H21.4772C22.0052 10.4774 22.5111 10.6879 22.884 11.0616C23.257 11.4353 23.4664 11.9417 23.4664 12.4696V13.7449C23.4664 14.2743 23.2561 14.7821 22.8817 15.1564C22.5073 15.5308 21.9996 15.7411 21.4702 15.7411H18.9709" stroke="#505050" stroke-width="0.750585" stroke-linecap="round" stroke-linejoin="round"/>
<path d="M23.9619 10.4751H24.7277C24.945 10.4751 25.1534 10.5614 25.307 10.7151C25.4607 10.8687 25.547 11.0771 25.547 11.2944V15.7711" stroke="#505050" stroke-width="0.750585" stroke-linecap="round" stroke-linejoin="round"/>
<path d="M25.3817 9.78182L25.0341 9.4337C25.0136 9.41318 24.9972 9.38881 24.9861 9.36197C24.975 9.33514 24.9692 9.30637 24.9692 9.27731C24.9692 9.24826 24.975 9.21949 24.9861 9.19265C24.9972 9.16582 25.0136 9.14144 25.0341 9.12092L25.3817 8.77339C25.4022 8.75282 25.4266 8.7365 25.4534 8.72536C25.4802 8.71423 25.509 8.7085 25.5381 8.7085C25.5671 8.7085 25.5959 8.71423 25.6227 8.72536C25.6495 8.7365 25.6739 8.75282 25.6944 8.77339L26.0426 9.12092C26.0631 9.14144 26.0795 9.16582 26.0906 9.19265C26.1017 9.21949 26.1075 9.24826 26.1075 9.27731C26.1075 9.30637 26.1017 9.33514 26.0906 9.36197C26.0795 9.38881 26.0631 9.41318 26.0426 9.4337L25.6944 9.78182C25.6739 9.80239 25.6495 9.81871 25.6227 9.82985C25.5959 9.84098 25.5671 9.84671 25.5381 9.84671C25.509 9.84671 25.4802 9.84098 25.4534 9.82985C25.4266 9.81871 25.4022 9.80239 25.3817 9.78182" fill="#414141"/>
<path d="M27.021 10.4716H27.782C28.1735 10.4716 28.5489 10.6271 28.8258 10.9039L30.6059 12.6834C30.6606 12.7383 30.7256 12.7819 30.7973 12.8117C30.8689 12.8414 30.9457 12.8567 31.0232 12.8567C31.1008 12.8567 31.1775 12.8414 31.2492 12.8117C31.3208 12.7819 31.3858 12.7383 31.4405 12.6834L33.2159 10.9104C33.3529 10.7733 33.5157 10.6645 33.6948 10.5904C33.8739 10.5162 34.0658 10.478 34.2597 10.478H34.8782" stroke="#505050" stroke-width="0.750585" stroke-linecap="round" stroke-linejoin="round"/>
<path d="M27.021 15.731H27.782C28.1735 15.731 28.5489 15.5754 28.8258 15.2987L30.6059 13.5198C30.6606 13.4648 30.7256 13.4212 30.7973 13.3915C30.8689 13.3617 30.9457 13.3464 31.0232 13.3464C31.1008 13.3464 31.1775 13.3617 31.2492 13.3915C31.3208 13.4212 31.3858 13.4648 31.4405 13.5198L33.2159 15.2922C33.3529 15.4293 33.5157 15.538 33.6948 15.6122C33.8739 15.6864 34.0658 15.7246 34.2597 15.7245H34.8782" stroke="#505050" stroke-width="0.750585" stroke-linecap="round" stroke-linejoin="round"/>
<path d="M13.177 16.8679C12.9891 16.8685 12.803 16.8318 12.6294 16.7599C12.4558 16.688 12.2981 16.5824 12.1656 16.4491L10.7054 14.9924C10.6539 14.9429 10.5852 14.9153 10.5137 14.9153C10.4422 14.9153 10.3735 14.9429 10.322 14.9924L8.85644 16.4574C8.72395 16.5906 8.56633 16.6962 8.39272 16.7681C8.21911 16.84 8.03297 16.8767 7.84507 16.8762H7.55762L9.4066 18.7257C9.68406 19.003 10.0602 19.1587 10.4524 19.1587C10.8447 19.1587 11.2208 19.003 11.4983 18.7257L13.3526 16.8709L13.177 16.8679Z" fill="#505050"/>
<path d="M7.84486 11.7033C8.03275 11.7029 8.21886 11.7397 8.39245 11.8115C8.56604 11.8834 8.72367 11.989 8.85624 12.1221L10.3218 13.5876C10.3727 13.6384 10.4416 13.6669 10.5135 13.6669C10.5854 13.6669 10.6543 13.6384 10.7052 13.5876L12.1654 12.1274C12.298 11.9943 12.4556 11.8887 12.6292 11.8168C12.8028 11.745 12.9889 11.7082 13.1768 11.7086H13.3535L11.4992 9.85433C11.3619 9.71692 11.1989 9.60792 11.0195 9.53355C10.84 9.45918 10.6477 9.4209 10.4534 9.4209C10.2592 9.4209 10.0668 9.45918 9.88737 9.53355C9.70792 9.60792 9.54488 9.71692 9.40758 9.85433L7.55859 11.7033H7.84486Z" fill="#505050"/>
<path d="M14.8868 13.2424L13.7677 12.1233C13.7423 12.1334 13.7154 12.1388 13.6881 12.1392H13.1786C12.9134 12.1403 12.6593 12.2461 12.4718 12.4337L11.0092 13.891C10.9442 13.9561 10.867 14.0077 10.782 14.0429C10.6969 14.0781 10.6058 14.0961 10.5138 14.096C10.3279 14.0963 10.1495 14.0228 10.0178 13.8916L8.55233 12.426C8.36478 12.2385 8.11072 12.1326 7.84548 12.1315H7.21934C7.19348 12.131 7.16793 12.1259 7.14394 12.1162L6.01888 13.2413C5.88147 13.3786 5.77247 13.5416 5.6981 13.7211C5.62373 13.9005 5.58545 14.0929 5.58545 14.2871C5.58545 14.4814 5.62373 14.6737 5.6981 14.8531C5.77247 15.0326 5.88147 15.1956 6.01888 15.3329L7.14394 16.458C7.16793 16.4484 7.19348 16.4432 7.21934 16.4427H7.84548C8.11068 16.4414 8.36467 16.3356 8.55233 16.1482L10.0178 14.6826C10.1514 14.5552 10.3289 14.4841 10.5135 14.4841C10.6981 14.4841 10.8756 14.5552 11.0092 14.6826L12.4694 16.1429C12.6571 16.3303 12.9111 16.4361 13.1763 16.4374H13.6858C13.7131 16.4377 13.7401 16.4433 13.7653 16.4539L14.8845 15.3347C15.1617 15.0573 15.3174 14.6811 15.3174 14.2889C15.3174 13.8967 15.1617 13.5205 14.8845 13.243" fill="#505050"/>
<path d="M19.2353 17.9541C19.1425 17.9583 19.0505 17.9723 18.9608 17.996V18.3612C19.0295 18.3853 19.1018 18.3975 19.1746 18.3971C19.3578 18.3971 19.4444 18.3352 19.4444 18.1738C19.4444 18.0225 19.3731 17.9541 19.2353 17.9541V17.9541ZM18.8989 18.6321V17.9105H18.9496L18.9549 17.9418C19.0483 17.9168 19.144 17.9014 19.2406 17.8958C19.3074 17.8912 19.3738 17.9104 19.4279 17.95C19.4575 17.9788 19.4802 18.0138 19.4945 18.0526C19.5088 18.0913 19.5142 18.1327 19.5103 18.1738C19.5139 18.2197 19.5047 18.2656 19.484 18.3066C19.4632 18.3477 19.4316 18.3822 19.3925 18.4065C19.3265 18.4391 19.2535 18.4552 19.1799 18.4536C19.1054 18.4532 19.0314 18.4419 18.9602 18.4201V18.6321H18.8989Z" fill="#939598"/>
<path d="M19.9697 17.9523C19.7865 17.9523 19.7052 18.0112 19.7052 18.1708C19.7052 18.3304 19.7859 18.397 19.9697 18.397C20.1535 18.397 20.2336 18.3381 20.2336 18.1791C20.2336 18.02 20.1529 17.9523 19.9697 17.9523V17.9523ZM20.2053 18.397C20.1348 18.4406 20.0524 18.4612 19.9697 18.4559C19.887 18.4609 19.8047 18.4403 19.7341 18.397C19.7011 18.3708 19.6752 18.3367 19.6588 18.298C19.6423 18.2592 19.6358 18.2169 19.6398 18.1749C19.6361 18.1329 19.6427 18.0907 19.6591 18.0518C19.6756 18.013 19.7013 17.9788 19.7341 17.9523C19.8046 17.9087 19.887 17.8881 19.9697 17.8934C20.0524 17.8882 20.1347 17.9088 20.2053 17.9523C20.2381 17.9786 20.2638 18.0125 20.2803 18.0512C20.2967 18.0898 20.3033 18.1319 20.2996 18.1738C20.3036 18.2159 20.2971 18.2583 20.2806 18.2973C20.2642 18.3363 20.2383 18.3705 20.2053 18.397" fill="#939598"/>
<path d="M21.0717 18.4389L20.8679 18.0007H20.8638L20.6629 18.4389H20.6105L20.3926 17.9088H20.4609L20.6417 18.3524H20.6459L20.8426 17.9088H20.9015L21.1035 18.3524H21.1077L21.2844 17.9088H21.3504L21.133 18.4389H21.0717Z" fill="#939598"/>
<path d="M21.7398 17.9511C21.5701 17.9511 21.513 18.0265 21.5042 18.1355H21.9789C21.9742 18.0148 21.9124 17.9511 21.7433 17.9511H21.7398ZM21.7433 18.4536C21.6653 18.4619 21.587 18.4409 21.5236 18.3947C21.4932 18.3668 21.4694 18.3324 21.4541 18.2941C21.4388 18.2557 21.4324 18.2144 21.4352 18.1732C21.4329 18.1305 21.4406 18.0878 21.4577 18.0485C21.4748 18.0092 21.5008 17.9745 21.5336 17.947C21.5952 17.9086 21.6672 17.8901 21.7398 17.894C21.8138 17.8894 21.8875 17.9073 21.9512 17.9453C22.0278 17.9965 22.0425 18.0866 22.0425 18.1891H21.5C21.5 18.2975 21.5377 18.3941 21.7427 18.3941C21.8345 18.3919 21.926 18.3817 22.016 18.3635V18.4188C21.9245 18.438 21.8315 18.449 21.738 18.4518" fill="#939598"/>
<path d="M22.2192 18.4389V17.9088H22.2699L22.2752 17.94C22.3599 17.9122 22.4482 17.8967 22.5373 17.894H22.545V17.9529H22.5303C22.4456 17.9548 22.3617 17.9689 22.2811 17.9948V18.4377L22.2192 18.4389Z" fill="#939598"/>
<path d="M22.9035 17.9512C22.7339 17.9512 22.6761 18.0266 22.6679 18.1356H23.1432C23.1379 18.0148 23.0761 17.9512 22.9076 17.9512H22.9035ZM22.9076 18.4536C22.8296 18.4618 22.7514 18.4408 22.6879 18.3947C22.6588 18.3665 22.6362 18.3322 22.622 18.2942C22.6077 18.2562 22.6021 18.2155 22.6055 18.175C22.6032 18.1323 22.6109 18.0896 22.6279 18.0503C22.645 18.0111 22.671 17.9763 22.7038 17.9488C22.7655 17.9104 22.8374 17.8919 22.91 17.8958C22.9838 17.8913 23.0573 17.9092 23.1209 17.9471C23.1974 17.9983 23.2122 18.0884 23.2122 18.1909H22.6702C22.6702 18.2993 22.7079 18.3959 22.9129 18.3959C23.0048 18.3937 23.0962 18.3834 23.1862 18.3653V18.4207C23.0945 18.4398 23.0013 18.4508 22.9076 18.4536" fill="#939598"/>
<path d="M23.8819 17.9877C23.8133 17.9637 23.7412 17.9518 23.6686 17.9523C23.4854 17.9523 23.3983 18.0142 23.3983 18.175C23.3983 18.3358 23.4695 18.3947 23.608 18.3947C23.7004 18.3903 23.7921 18.3767 23.8819 18.354V17.9877ZM23.8936 18.4389L23.8883 18.4071C23.7949 18.4322 23.6992 18.4478 23.6026 18.4536C23.5356 18.4587 23.469 18.4393 23.4153 18.3988C23.3855 18.3702 23.3626 18.3352 23.3482 18.2964C23.3338 18.2576 23.3284 18.2161 23.3323 18.175C23.3288 18.1293 23.3379 18.0835 23.3587 18.0427C23.3795 18.0019 23.4111 17.9676 23.4501 17.9435C23.5163 17.9101 23.5898 17.8937 23.6639 17.8958C23.738 17.8966 23.8115 17.9079 23.8824 17.9293V17.6873H23.9443V18.4389H23.8936Z" fill="#939598"/>
<path d="M24.8514 17.9541C24.7586 17.9582 24.6666 17.9723 24.5769 17.9959V18.3599C24.6454 18.3849 24.7178 18.3975 24.7907 18.397C24.9739 18.397 25.0605 18.3352 25.0605 18.1738C25.0605 18.0224 24.9892 17.9541 24.8514 17.9541V17.9541ZM25.0092 18.4065C24.9432 18.439 24.8702 18.4552 24.7966 18.4536C24.7164 18.4528 24.6369 18.4392 24.561 18.4135V18.4389H24.5186V17.6873H24.5775V17.9376C24.6691 17.9142 24.7628 17.8996 24.8573 17.894C24.9241 17.8894 24.9905 17.9086 25.0446 17.9482C25.0742 17.977 25.0969 18.012 25.1112 18.0508C25.1255 18.0895 25.1309 18.1309 25.127 18.172C25.1305 18.2179 25.1214 18.2638 25.1006 18.3048C25.0799 18.3459 25.0483 18.3804 25.0092 18.4047" fill="#939598"/>
<path d="M25.2052 18.6444V18.5855C25.2353 18.5855 25.2641 18.5908 25.2836 18.5908C25.3194 18.5938 25.3551 18.5846 25.3851 18.5649C25.4151 18.5451 25.4376 18.5159 25.4491 18.4819L25.4691 18.44L25.1929 17.9099H25.2641L25.4998 18.3658H25.5039L25.7289 17.9099H25.799L25.5045 18.5031C25.4497 18.6109 25.3914 18.6462 25.2836 18.6462C25.2575 18.6474 25.2313 18.6468 25.2052 18.6444Z" fill="#939598"/>
<path d="M26.6518 18.1373H26.4463V18.3229H26.6524C26.7938 18.3229 26.8474 18.307 26.8474 18.2292C26.8474 18.1515 26.7738 18.1373 26.6518 18.1373V18.1373ZM26.6141 17.8369H26.4463V18.0254H26.6147C26.7543 18.0254 26.8097 18.0089 26.8097 17.93C26.8097 17.851 26.7396 17.8369 26.6141 17.8369V17.8369ZM26.9322 18.3888C26.8568 18.4365 26.7655 18.4389 26.5994 18.4389H26.2866V17.722H26.5917C26.7355 17.722 26.8232 17.722 26.8963 17.768C26.9206 17.7825 26.9404 17.8036 26.9534 17.8288C26.9664 17.8539 26.9722 17.8823 26.9699 17.9105C26.9717 17.9459 26.9615 17.9809 26.941 18.0097C26.9205 18.0386 26.8908 18.0597 26.8568 18.0696V18.0737C26.9487 18.0943 27.0082 18.1414 27.0082 18.2433C27.0104 18.2723 27.0045 18.3013 26.9911 18.327C26.9776 18.3527 26.9572 18.3741 26.9322 18.3888" fill="#939598"/>
<path d="M27.6343 18.2168C27.5754 18.2115 27.51 18.2086 27.4441 18.2086C27.3363 18.2086 27.2986 18.2304 27.2986 18.2799C27.2986 18.3293 27.3298 18.3505 27.4123 18.3505C27.4872 18.3479 27.5616 18.3375 27.6343 18.3193V18.2168ZM27.6655 18.4389L27.6614 18.4071C27.5679 18.4336 27.4717 18.4493 27.3746 18.4536C27.3186 18.4573 27.2629 18.4438 27.2149 18.4148C27.1953 18.3999 27.1797 18.3805 27.1694 18.3582C27.1592 18.3359 27.1546 18.3114 27.156 18.2869C27.1547 18.2569 27.1625 18.2271 27.1783 18.2016C27.1942 18.176 27.2174 18.1559 27.245 18.1438C27.3083 18.1201 27.376 18.11 27.4435 18.1143C27.4988 18.1143 27.5731 18.1173 27.6349 18.1214V18.1143C27.6349 18.0319 27.5807 18.0048 27.4317 18.0048C27.3728 18.0048 27.3045 18.0077 27.2373 18.0142V17.907C27.3115 17.9011 27.3952 17.897 27.4641 17.897C27.5491 17.8895 27.6346 17.9065 27.7103 17.9459C27.7692 17.9889 27.7822 18.0484 27.7822 18.1273V18.4401L27.6655 18.4389Z" fill="#939598"/>
<path d="M28.472 18.4389V18.1444C28.472 18.0483 28.4225 18.0136 28.3347 18.0136C28.2618 18.0167 28.1895 18.028 28.1191 18.0472V18.4365H27.9736V17.9064H28.0914L28.0967 17.9394C28.1886 17.9127 28.2833 17.8967 28.3789 17.8917C28.444 17.8866 28.5087 17.9059 28.5603 17.9459C28.5818 17.9674 28.5982 17.9934 28.6083 18.022C28.6185 18.0506 28.6222 18.0811 28.6192 18.1114V18.4348L28.472 18.4389Z" fill="#939598"/>
<path d="M29.0336 18.4536C28.9635 18.4591 28.8937 18.4392 28.8369 18.3977C28.8068 18.3692 28.7836 18.3343 28.7691 18.2955C28.7546 18.2567 28.7492 18.2151 28.7533 18.1739C28.7505 18.1302 28.7589 18.0865 28.7778 18.047C28.7966 18.0075 28.8253 17.9735 28.861 17.9482C28.9317 17.9086 29.0123 17.8904 29.0931 17.8958C29.152 17.8958 29.2139 17.8999 29.2793 17.9058V18.0189C29.2263 18.0142 29.1615 18.0095 29.1108 18.0095C28.9706 18.0095 28.9046 18.0537 28.9046 18.175C28.9046 18.2964 28.9541 18.3382 29.069 18.3382C29.1437 18.3359 29.218 18.3268 29.291 18.3111V18.4201C29.2065 18.4395 29.1203 18.4507 29.0336 18.4536Z" fill="#939598"/>
<path d="M29.7282 18.0066C29.588 18.0066 29.5262 18.0507 29.5262 18.1709C29.5262 18.2911 29.5851 18.3423 29.7282 18.3423C29.8714 18.3423 29.9279 18.2993 29.9279 18.1791C29.9279 18.059 29.869 18.0066 29.7282 18.0066V18.0066ZM29.9815 18.3977C29.9046 18.4412 29.8164 18.4607 29.7282 18.4536C29.6397 18.4605 29.5512 18.441 29.4738 18.3977C29.4393 18.3724 29.4119 18.3386 29.3945 18.2995C29.377 18.2605 29.37 18.2176 29.3742 18.175C29.3701 18.1323 29.3771 18.0892 29.3945 18.05C29.412 18.0108 29.4393 17.9767 29.4738 17.9512C29.5513 17.9081 29.6398 17.8888 29.7282 17.8958C29.8163 17.8891 29.9043 17.9083 29.9815 17.9512C30.0158 17.9766 30.0428 18.0105 30.0601 18.0495C30.0773 18.0886 30.0841 18.1314 30.0799 18.1738C30.0841 18.2165 30.0772 18.2594 30.06 18.2986C30.0427 18.3378 30.0157 18.3719 29.9815 18.3977" fill="#939598"/>
<path d="M30.9318 18.4536C30.8399 18.4594 30.7489 18.4329 30.6744 18.3787C30.5884 18.3081 30.5625 18.1979 30.5625 18.0795C30.5594 18.0207 30.5711 17.962 30.5965 17.9088C30.6219 17.8556 30.6603 17.8096 30.708 17.775C30.8005 17.7238 30.9058 17.7003 31.0113 17.7072C31.0909 17.7072 31.1721 17.7125 31.2611 17.7196V17.8486C31.1851 17.8421 31.0909 17.8368 31.0178 17.8368C30.8134 17.8368 30.7268 17.9146 30.7268 18.0795C30.7268 18.2444 30.8069 18.3234 30.9577 18.3234C31.0653 18.3198 31.1723 18.3054 31.277 18.2804V18.4088C31.1637 18.4353 31.0481 18.4505 30.9318 18.4541" fill="#939598"/>
<path d="M31.7103 17.99C31.5878 17.99 31.5407 18.0336 31.5336 18.1143H31.887C31.8829 18.0283 31.8329 17.99 31.7103 17.99ZM31.6885 18.4536C31.6093 18.4608 31.5301 18.4399 31.4647 18.3947C31.4348 18.3667 31.4116 18.3323 31.3969 18.294C31.3822 18.2557 31.3764 18.2146 31.3799 18.1738C31.3776 18.1315 31.3853 18.0893 31.4025 18.0506C31.4197 18.0118 31.4459 17.9778 31.4788 17.9512C31.5485 17.9093 31.6293 17.89 31.7103 17.8958C31.7902 17.8908 31.8699 17.9093 31.9395 17.9488C32.0243 18.0077 32.0314 18.1008 32.0325 18.2097H31.5301C31.5336 18.2904 31.5766 18.3423 31.7251 18.3423C31.8195 18.3402 31.9136 18.3311 32.0066 18.3152V18.4188C31.9017 18.4388 31.7953 18.4504 31.6885 18.4536Z" fill="#939598"/>
<path d="M32.6886 18.4389V18.1444C32.6886 18.0483 32.6397 18.0136 32.5519 18.0136C32.479 18.0167 32.4067 18.028 32.3363 18.0472V18.4365H32.1885V17.9064H32.3092L32.3145 17.9394C32.4064 17.9126 32.5011 17.8966 32.5967 17.8917C32.6618 17.8866 32.7264 17.9059 32.7781 17.9459C32.7995 17.9674 32.8159 17.9934 32.8261 18.022C32.8363 18.0506 32.84 18.0811 32.837 18.1114V18.4348L32.6886 18.4389Z" fill="#939598"/>
<path d="M33.2554 18.4537C33.2227 18.4568 33.1898 18.4516 33.1598 18.4384C33.1298 18.4252 33.1037 18.4045 33.084 18.3783C33.0547 18.3302 33.0411 18.2742 33.0451 18.2181V18.0201H32.9385V17.9106H33.0451L33.061 17.7504H33.1918V17.9106H33.3997V18.0201H33.1918V18.1898C33.1897 18.224 33.1947 18.2583 33.2065 18.2905C33.2154 18.3076 33.2295 18.3215 33.2467 18.3303C33.2639 18.339 33.2834 18.3422 33.3025 18.3394C33.3379 18.3388 33.3731 18.3352 33.4079 18.3288V18.4348C33.3578 18.4458 33.3067 18.4522 33.2554 18.4537" fill="#939598"/>
<path d="M33.5439 18.4389V17.9088H33.6618L33.6671 17.9418C33.7515 17.9133 33.8396 17.8972 33.9286 17.894H33.9474V18.0201C33.9304 18.0201 33.9109 18.0201 33.8962 18.0201C33.8262 18.0203 33.7565 18.0294 33.6888 18.0472V18.4377L33.5439 18.4389Z" fill="#939598"/>
<path d="M34.4863 18.2168C34.4244 18.2115 34.3614 18.2086 34.2954 18.2086C34.1876 18.2086 34.1499 18.2304 34.1499 18.2799C34.1499 18.3293 34.1817 18.3506 34.2642 18.3506C34.3391 18.3479 34.4135 18.3374 34.4863 18.3193V18.2168ZM34.5175 18.4389L34.5116 18.4089C34.4181 18.4354 34.3218 18.451 34.2247 18.4554C34.1686 18.4591 34.1127 18.4455 34.0645 18.4165C34.045 18.4017 34.0294 18.3822 34.0192 18.3599C34.0089 18.3377 34.0042 18.3132 34.0056 18.2887C34.0042 18.2578 34.0124 18.2272 34.0292 18.2012C34.046 18.1753 34.0705 18.1552 34.0993 18.1438C34.1623 18.1206 34.2296 18.111 34.2966 18.1155C34.352 18.1155 34.4268 18.1185 34.4886 18.1226V18.1144C34.4886 18.0319 34.4338 18.0048 34.2854 18.0048C34.2265 18.0048 34.1576 18.0077 34.0904 18.0142V17.907C34.1652 17.9011 34.2489 17.897 34.3178 17.897C34.4027 17.8895 34.4879 17.9065 34.5634 17.9459C34.6223 17.9889 34.6359 18.0484 34.6359 18.1273V18.4401L34.5175 18.4389Z" fill="#939598"/>
<path d="M34.8232 17.6873H34.9711V18.4389H34.8232V17.6873Z" fill="#939598"/>
</svg>
