<svg width="42" height="28" viewBox="0 0 42 28" fill="none" xmlns="http://www.w3.org/2000/svg">
<rect x="1.10596" y="0.5" width="39.6397" height="26.8672" rx="5.5" fill="white" stroke="#D9D9D9"/>
<path fill-rule="evenodd" clip-rule="evenodd" d="M12.9433 18.878H10.4813L8.63514 11.8347C8.54751 11.5107 8.36145 11.2243 8.08777 11.0893C7.40475 10.75 6.65211 10.48 5.83105 10.3439V10.0727H9.7971C10.3445 10.0727 10.755 10.48 10.8234 10.9531L11.7813 16.0337L14.2421 10.0727H16.6357L12.9433 18.878ZM18.0041 18.878H15.679L17.5936 10.0727H19.9187L18.0041 18.878ZM22.9268 12.512C22.9953 12.0378 23.4058 11.7666 23.8847 11.7666C24.6374 11.6985 25.4572 11.8347 26.1414 12.1728L26.552 10.277C25.8678 10.0058 25.1151 9.86963 24.4321 9.86963C22.1754 9.86963 20.5333 11.0893 20.5333 12.782C20.5333 14.0698 21.6965 14.7459 22.5175 15.1533C23.4058 15.5594 23.7479 15.8306 23.6795 16.2368C23.6795 16.846 22.9953 17.1172 22.3122 17.1172C21.4912 17.1172 20.6701 16.9141 19.9187 16.5748L19.5082 18.4718C20.3292 18.8099 21.2175 18.9461 22.0386 18.9461C24.569 19.013 26.1414 17.7945 26.1414 15.9656C26.1414 13.6624 22.9268 13.5274 22.9268 12.512V12.512ZM34.2788 18.878L32.4326 10.0727H30.4496C30.0391 10.0727 29.6285 10.3439 29.4917 10.75L26.073 18.878H28.4666L28.9443 17.5914H31.8853L32.1589 18.878H34.2788ZM30.7917 12.444L31.4747 15.7625H29.5601L30.7917 12.444Z" fill="#505050"/>
</svg>
