<svg width="28" height="27" viewBox="0 0 28 27" fill="none" xmlns="http://www.w3.org/2000/svg">
<path d="M13.9602 26.4696C13.2505 26.4696 12.5393 26.4128 11.8458 26.3001C8.78447 25.8058 5.97879 24.228 3.94672 21.8575C1.8926 19.4612 0.76123 16.399 0.76123 13.2344C0.76123 5.93655 6.6826 0 13.9602 0C21.2377 0 27.1598 5.93729 27.1598 13.2344C27.1598 16.4476 25.9976 19.5459 23.8862 21.9584C21.7953 24.3488 18.9228 25.9053 15.7976 26.3421C15.1929 26.4268 14.5743 26.4696 13.9602 26.4696ZM13.9602 0.883964C7.16822 0.883964 1.64283 6.4242 1.64283 13.2344C1.64283 19.3323 5.99275 24.46 11.9861 25.4272C13.1939 25.6224 14.4597 25.6364 15.6756 25.4663C21.7197 24.6221 26.2775 19.3632 26.2775 13.2344C26.2775 6.4242 20.7521 0.883964 13.9594 0.883964H13.9602Z" fill="#93014A"/>
<path d="M16.331 17.0221C13.0258 17.0214 10.3362 14.3246 10.3354 11.0112C10.3369 10.1714 11.018 9.48779 11.8547 9.48779C11.9407 9.48779 12.0259 9.49516 12.1067 9.5099C12.286 9.53936 12.4557 9.6005 12.6129 9.69184C12.6357 9.7051 12.6511 9.7272 12.6548 9.75298L13.0037 11.9607C13.0082 11.9865 13.0001 12.0122 12.9832 12.0314C12.79 12.2458 12.5439 12.3997 12.2706 12.4771L12.1383 12.5146L12.1883 12.6428C12.6393 13.7927 13.5562 14.7128 14.7037 15.1651L14.8316 15.2151L14.869 15.0826C14.9462 14.8078 15.0997 14.561 15.3135 14.368C15.329 14.354 15.3495 14.3459 15.3708 14.3459C15.3752 14.3459 15.3804 14.3459 15.3848 14.3474L17.5858 14.6973C17.6123 14.7017 17.6336 14.7164 17.6475 14.7393C17.7379 14.8969 17.7989 15.0678 17.829 15.2468C17.843 15.3271 17.8503 15.4111 17.8503 15.4995C17.8503 16.3385 17.1686 17.0214 16.331 17.0229V17.0221Z" fill="#93014A"/>
<path d="M22.1921 12.5072C22.0136 10.4874 21.0908 8.61411 19.5936 7.23291C18.0875 5.84288 16.1326 5.07751 14.0888 5.07751C9.6029 5.07751 5.9531 8.73712 5.9531 13.235C5.9531 14.7444 6.36817 16.2155 7.15426 17.4965L5.40137 21.3881L11.0157 20.7885C11.992 21.1892 13.0257 21.3925 14.0888 21.3925C14.3687 21.3925 14.6552 21.3778 14.9424 21.3483C15.1959 21.3211 15.4515 21.2813 15.7035 21.2305C19.4606 20.4695 22.2031 17.1259 22.2244 13.2785V13.235C22.2244 12.9897 22.2134 12.7452 22.1913 12.508L22.1921 12.5072ZM11.2309 19.0802L8.12477 19.4117L9.05264 17.3514L8.8675 17.1016C8.85354 17.0832 8.84031 17.0648 8.82488 17.0442C8.01969 15.9297 7.59432 14.6125 7.59432 13.2343C7.59432 9.64319 10.508 6.72242 14.0888 6.72242C17.444 6.72242 20.2871 9.34707 20.5611 12.6973C20.5758 12.877 20.5832 13.0575 20.5832 13.235C20.5832 13.2859 20.5824 13.3359 20.581 13.389C20.5119 16.393 18.4189 18.944 15.4912 19.5937C15.2679 19.6438 15.0387 19.6813 14.8102 19.7064C14.5729 19.7336 14.3297 19.7469 14.088 19.7469C13.2277 19.7469 12.3917 19.5797 11.6012 19.2497C11.5138 19.2143 11.4278 19.1767 11.347 19.1377L11.2295 19.081L11.2309 19.0802Z" fill="#93014A"/>
</svg>
