<svg width="28" height="28" viewBox="0 0 28 28" fill="none" xmlns="http://www.w3.org/2000/svg">
<path d="M14.2046 27.185C13.4757 27.185 12.7454 27.1267 12.0331 27.0109C8.88903 26.5033 6.00752 24.8828 3.92052 22.4482C1.81089 19.9872 0.648926 16.8422 0.648926 13.5921C0.648926 6.097 6.73035 0 14.2046 0C21.6789 0 27.761 6.09775 27.761 13.5921C27.761 16.8921 26.5674 20.0742 24.3989 22.5519C22.2515 25.0069 19.3014 26.6054 16.0917 27.0541C15.4707 27.1411 14.8354 27.185 14.2046 27.185ZM14.2046 0.907855C7.22909 0.907855 1.55435 6.59783 1.55435 13.5921C1.55435 19.8548 6.02185 25.1211 12.1772 26.1144C13.4176 26.3149 14.7177 26.3293 15.9664 26.1545C22.1738 25.2875 26.8549 19.8866 26.8549 13.5921C26.8549 6.59783 21.1801 0.907855 14.2039 0.907855H14.2046Z" fill="#93014A"/>
<path d="M22.5316 10.8459C22.4282 9.8382 22.2041 8.72532 21.3802 8.13976C20.7411 7.68583 19.9021 7.66919 19.1189 7.66994C17.4628 7.67146 15.8066 7.67296 14.1504 7.67448C12.5576 7.67599 10.9649 7.67751 9.37206 7.67902C8.70658 7.67902 8.05995 7.62758 7.442 7.91582C6.91082 8.16397 6.49584 8.63529 6.24685 9.15958C5.89977 9.88964 5.82658 10.7158 5.78508 11.523C5.70812 12.9922 5.71642 14.466 5.80923 15.9337C5.87638 17.0057 6.04765 18.1897 6.87384 18.8729C7.60648 19.4781 8.64017 19.5076 9.58935 19.5084C12.6044 19.5106 15.6195 19.5129 18.6345 19.5159C19.0208 19.5159 19.4245 19.5091 19.8184 19.466C20.594 19.382 21.3327 19.1596 21.8307 18.5839C22.3332 18.0036 22.4622 17.1948 22.5392 16.43C22.7248 14.5749 22.7225 12.7002 22.5316 10.8459ZM12.4067 16.1947V10.9912L16.9014 13.5929L12.4067 16.1947Z" fill="#93014A"/>
</svg>
